<?xml version="1.0" encoding="utf-8"?>
<!-- Generator: Adobe Illustrator 18.0.0, SVG Export Plug-In . SVG Version: 6.00 Build 0)  -->
<!DOCTYPE svg PUBLIC "-//W3C//DTD SVG 1.1//EN" "http://www.w3.org/Graphics/SVG/1.1/DTD/svg11.dtd">
<svg version="1.1" id="Layer_5" xmlns="http://www.w3.org/2000/svg" xmlns:xlink="http://www.w3.org/1999/xlink" x="0px" y="0px"
	 viewBox="0 0 48 48" enable-background="new 0 0 48 48" xml:space="preserve">
<path fill="#FFFFFF" stroke="#FFFFFF" stroke-miterlimit="10" d="M35.9,26.7H12.1c-3.6,0-6.6-3-6.6-6.6v-0.7c0-3.1,2.2-5.8,5.2-6.5
	v-0.7c0-3.6,3-6.6,6.6-6.6h0.4c2.4,0,4.7,1.4,5.8,3.5c0.7-0.2,1.5-0.4,2.2-0.4c2.7,0,5.1,1.6,6.3,4h3.8c3.6,0,6.6,3,6.6,6.6v0.7
	C42.5,23.7,39.6,26.7,35.9,26.7z M17.3,6.6c-3.1,0-5.6,2.5-5.6,5.6V13c0,0.1,0,0.1,0,0.2l0,0.6l-0.5,0.1c-2.7,0.4-4.8,2.8-4.8,5.6
	v0.7c0,3.1,2.5,5.6,5.6,5.6h23.8c3.1,0,5.6-2.5,5.6-5.6v-0.7c0-3.1-2.5-5.6-5.6-5.6h-4.5l-0.1-0.3c-0.9-2.2-3.1-3.7-5.5-3.7
	c-0.8,0-1.6,0.2-2.3,0.5L23,10.4l-0.2-0.4c-0.9-2-2.9-3.3-5.1-3.3H17.3z"/>
<g>
	<line fill="none" stroke="#FFFFFF" stroke-miterlimit="10" x1="15" y1="32.2" x2="15" y2="38.6"/>
	<line fill="none" stroke="#FFFFFF" stroke-miterlimit="10" x1="12.2" y1="33.8" x2="17.8" y2="37"/>
	<line fill="none" stroke="#FFFFFF" stroke-miterlimit="10" x1="12.2" y1="37" x2="17.8" y2="33.8"/>
</g>
<g>
	<line fill="none" stroke="#FFFFFF" stroke-miterlimit="10" x1="24" y1="36" x2="24" y2="42.4"/>
	<line fill="none" stroke="#FFFFFF" stroke-miterlimit="10" x1="21.2" y1="37.6" x2="26.8" y2="40.8"/>
	<line fill="none" stroke="#FFFFFF" stroke-miterlimit="10" x1="21.2" y1="40.8" x2="26.8" y2="37.6"/>
</g>
<g>
	<line fill="none" stroke="#FFFFFF" stroke-miterlimit="10" x1="30.5" y1="28.5" x2="30.5" y2="34.9"/>
	<line fill="none" stroke="#FFFFFF" stroke-miterlimit="10" x1="27.8" y1="30.1" x2="33.3" y2="33.3"/>
	<line fill="none" stroke="#FFFFFF" stroke-miterlimit="10" x1="27.8" y1="33.3" x2="33.3" y2="30.1"/>
</g>
</svg>
