<?xml version="1.0" encoding="utf-8"?>
<!-- Generator: Adobe Illustrator 17.1.0, SVG Export Plug-In . SVG Version: 6.00 Build 0)  -->
<!DOCTYPE svg PUBLIC "-//W3C//DTD SVG 1.1//EN" "http://www.w3.org/Graphics/SVG/1.1/DTD/svg11.dtd">
<svg version="1.1" id="Layer_1" xmlns="http://www.w3.org/2000/svg" xmlns:xlink="http://www.w3.org/1999/xlink" x="0px" y="0px"
	 viewBox="0 0 283.5 283.5" enable-background="new 0 0 283.5 283.5" xml:space="preserve">
<path fill="#FFFFFF" d="M266.8,168.9c-1.3-2.6-1.6-6-1.5-9c0.1-5.3,0.9-10.6,1.4-15.9c-0.2,0-0.4,0-0.7,0c0-3.7,0.1-7.3,0-11
	c-0.1-2-0.5-4-0.8-5.9C260.6,95.8,246,70,221.4,50.1c-27.6-22.3-59.3-30.4-94.4-25.8c-2.5,0.3-5.6-0.3-7.9-1.5
	c-14-7.1-28.8-9.8-44.1-7C26.3,24.7,1.8,75,24.4,119.2c1.1,2.1,1.3,4.7,1.4,7.1c0.2,12.1-1.2,24.4,0.4,36.3
	C34.4,227,98.3,274,162.5,263.8c3.2-0.5,7,0.2,9.9,1.6c13.8,6.6,28.2,9.3,43.2,6.7C264.1,263.9,289.4,212.6,266.8,168.9z
	 M185.3,221.6c-11,5.1-22.6,7.4-38.1,7.4c-18.3-0.7-37.6-4.1-53.8-17.2c-7.6-6.1-12.3-14-12.7-23.9c-0.3-6.2,1.6-11.6,7-15.1
	c5.5-3.6,11.4-3,16.4,0.5c4,2.8,7.6,6.5,10.7,10.3c12.8,15.9,26.8,20.7,46.9,14.8c4.4-1.3,8.6-4.5,11.8-7.9
	c7.1-7.7,5.5-18.1-3.8-22.7c-8.4-4.1-17.7-6.5-26.7-9.3c-12-3.8-24.4-6.5-36.1-11.1c-16.4-6.4-27-18.3-27.3-36.9
	c-0.3-18.3,6.9-32.9,22.6-42.9c10.2-6.5,21.7-9.3,33.6-9.7c19.2-0.6,38,1.9,54.8,11.8c6.4,3.8,12.3,9.2,16.8,15.1
	c5.8,7.5,4.6,17.4-1.2,22.8c-6.4,6-17.3,6.5-24.9,0.7c-3.6-2.7-6.7-5.9-10.1-8.9c-11.9-10.4-25.6-13.3-40.4-8.6
	c-4.2,1.3-8.5,4.9-11,8.6c-4.5,6.5-2.7,13.5,4.5,16.7c8,3.6,16.5,5.8,24.9,8.5c13.7,4.4,27.8,7.8,41.1,13.3
	c13.1,5.3,22.2,15.3,24.3,30C218.2,190.7,206.4,211.8,185.3,221.6z"/>
</svg>
